PathFileType	4	(X/Y/Z)	Patient4_TMGait_0pt2_01_right_24.trc.trc
DataRate	CameraRate	NumFrames	NumMarkers	Units	OrigDataRate	OrigDataStartFrame	OrigNumFrames
46.052631578947	46.052631578947	6	33	mm	46.052631578947	1	       141
Frame#	Time	Sacral			L.Shoulder			Chest			R.Shoulder			Neck			R.ASIS			L.ASIS			R.Thigh.Superior			R.Thigh.Lateral			R.Thigh.Inferior			R.Patella			L.Thigh.Superior			L.Thigh.Lateral			L.Thigh.Inferior			L.Patella			L.Shank.Superior			L.Shank.Lateral			L.Shank.Inferior			R.Shank.Superior			R.Shank.Lateral			R.Shank.Inferior			R.Heel			R.Midfoot.Superior			R.Midfoot.Lateral			R.Toe			L.Heel			L.Midfoot.Lateral			L.Midfoot.Superior			L.Toe			L.Elbow			L.Wrist			R.Elbow			R.Wrist			
		X1	Y1	Z1	X2	Y2	Z2	X3	Y3	Z3	X4	Y4	Z4	X5	Y5	Z5	X6	Y6	Z6	X7	Y7	Z7	X8	Y8	Z8	X9	Y9	Z9	X10	Y10	Z10	X11	Y11	Z11	X12	Y12	Z12	X13	Y13	Z13	X14	Y14	Z14	X15	Y15	Z15	X16	Y16	Z16	X17	Y17	Z17	X18	Y18	Z18	X19	Y19	Z19	X20	Y20	Z20	X21	Y21	Z21	X22	Y22	Z22	X23	Y23	Z23	X24	Y24	Z24	X25	Y25	Z25	X26	Y26	Z26	X27	Y27	Z27	X28	Y28	Z28	X29	Y29	Z29	X30	Y30	Z30	X31	Y31	Z31	X32	Y32	Z32	X33	Y33	Z33	

1	53.880000000000	846.668637418638	993.328427227567	393.860280247389	1035.128225503346	1419.755035125527	217.726820399271	1134.504773522993	1345.798278088167	378.714555939208	1053.765462906615	1416.061678295743	554.057619876671	1015.600604085161	1481.007249680298	377.008509942190	1070.961041574254	925.211560058146	515.957010146778	1065.538282256759	944.517635591222	242.952921548864	1123.684471319600	728.051502909510	499.273465959568	1051.966836586243	620.265908398664	572.130138373357	1133.319221934160	559.855973803139	498.530546983077	1126.826022991061	450.870388143059	525.185186575366	1129.217571082206	744.866330420901	296.431037983066	1063.283443127927	612.059474015501	241.433882560472	1148.928559175139	550.049373662651	319.834198635699	1154.964134827172	474.283398136738	331.604429849116	1114.236920681763	399.378700208911	325.549950975988	1013.301725788711	296.688560398826	272.101131455713	1037.476374586102	183.596869747172	349.958056778875	1045.583323371955	387.279904569125	536.193119088589	925.736097229031	360.398223941609	606.122051443226	898.634230500446	251.727970726694	560.737207261407	689.752076419426	206.874086028381	547.949774229245	854.769164372277	134.499675515985	580.068016831553	747.057566413809	140.195544136373	616.138603178776	914.668583446206	29.128424186981	598.527811830210	886.513167833107	40.246499941091	384.277339243874	964.387495286480	36.893209884845	308.088842227396	1047.775796112029	95.997106022214	339.678259184223	1176.237525895436	40.211191252596	315.503158392673	1049.164843140320	1068.254790098408	91.348111091569	1140.721167181992	822.524484421495	113.171973385650	1094.920483637295	1055.852750029769	653.138741397582	1247.007389566234	842.783004792825	652.934659133638	
2	53.901714285714	845.151453414378	991.691005268265	390.561751236946	1036.509075106710	1418.707910149384	216.809486200580	1133.377041747479	1344.433392700896	379.029531582012	1050.147706471992	1414.189230722458	553.515060433854	1015.012910016565	1479.787227016875	376.090508265994	1069.816831974994	924.780998093922	514.160884898613	1065.095351620873	943.571253161557	240.753150943678	1127.486405794063	731.540887711835	495.752365920421	1061.015271730315	622.247017665907	569.914691600265	1143.425540010420	564.134190338225	495.431805994009	1140.089720578877	454.076901070570	522.706853677053	1128.910461925530	743.548353182016	293.884818723634	1062.246908052282	610.761355203839	239.618894374789	1147.786964512929	548.703455960228	318.382582631732	1153.737440266132	472.975728122607	330.607575884385	1112.327036261180	398.074667780318	324.814360750197	1010.814441380624	295.951020603366	271.292841098636	1033.862503800238	182.947246292183	349.622364001602	1058.006156794084	390.064764121538	534.122138924918	937.151350532912	365.214246484101	603.351041523815	908.978633596575	256.511114724134	558.686442287352	699.678593882324	214.414661897111	545.169470782491	863.871955946896	140.078352420329	578.649975099127	755.918511938285	147.524124565747	614.178421052328	921.601974345620	31.023290807707	598.393639099753	882.120577713935	40.212327785612	384.179517407444	959.996417110209	36.801482462727	307.958473803277	1043.370101626388	95.890023664277	339.602150897062	1171.877697999029	40.181690911616	315.479439767670	1062.299335231054	1069.222218608050	88.854885334519	1166.453281117263	829.747315163160	111.477175647284	1072.262254593370	1054.237875181685	653.348661474079	1204.265428429479	831.614778167185	654.508278237779	
3	53.923428571429	843.631851582089	990.320001824137	387.237388945234	1037.995129160773	1417.930551584004	215.982220316207	1132.245549425467	1343.326160681093	379.479457599791	1046.416420878020	1412.598545527771	553.013658180111	1014.392280552161	1478.798883245087	375.243305071413	1068.551723513587	924.575217508911	512.400448750920	1064.697584625435	942.844784412099	238.613284162007	1131.122110312830	735.302762457367	492.321875883048	1069.832897002201	624.530228368817	567.754063137827	1153.299503524132	568.738162336355	492.407074996158	1153.246006488248	457.734151609801	520.297590896796	1128.385956420033	742.285371216695	291.363823947587	1060.894052180118	609.604079550937	237.803525913602	1146.258084958043	547.419791343019	316.893098771746	1152.058224806767	471.757625540620	329.559931073147	1110.010226141539	396.889072510379	324.020281117343	1007.973556039336	295.265677830069	270.439602925273	1029.994483537437	182.361859733057	349.250563371505	1070.571621685421	393.091844982173	532.158272137496	948.818147151650	369.686603089635	600.688827422103	920.111442197847	260.777834127890	556.762799974433	710.531687812635	220.234478121041	542.501827387520	874.345358187378	145.000867141265	577.396203354268	766.106672300034	153.558422547081	612.400037156911	930.672323974517	32.875426313347	598.528233428403	877.551732257194	40.176852563663	384.080449486339	955.436216680893	36.709908865410	307.825965366847	1038.796198594233	95.788463302474	339.506476596493	1167.349175220928	40.155292424403	315.454205838943	1075.747324521850	1070.720593096805	86.336352883335	1192.950528697521	838.052603279282	109.750211975931	1048.663456351803	1053.380482475396	653.409871844111	1160.117161148351	821.560740180158	655.779284948487	
4	53.945142857143	842.170706324098	989.382112577641	384.001006428918	1039.580408939373	1417.563525917920	215.322319232564	1131.144587183685	1342.632312103557	380.116353319362	1042.646421955918	1411.478653923139	552.594455191653	1013.747313919278	1478.180016048970	374.529692425045	1067.155768132204	924.700206096904	510.777302398302	1064.392239118328	942.462208384232	236.659078041627	1134.355549030409	739.290296311045	489.176266548364	1077.957883853933	627.146728420799	565.787054390157	1162.421180958073	573.601174661662	489.628853338808	1165.697169676096	461.883185836812	518.100681283005	1127.575938577670	741.150829175724	288.988570148402	1059.121905738600	608.697914614395	236.058074052011	1144.202753859110	546.273691952063	315.409306518467	1149.759972255509	470.719383486709	328.481478539062	1107.172427285399	395.923086806695	323.172752314785	1004.715616249497	294.680389040273	269.553671223272	1025.894898883304	181.892663696324	348.842743972559	1082.843080129132	396.339932844877	530.444829933020	960.432259978957	373.468801536612	598.324686632036	932.006594781872	264.148131102426	555.129592954398	722.440560583117	223.364117581997	540.160396677146	886.475641653991	148.816279562459	576.456364458608	777.937396220660	157.513838828415	610.990831631381	942.527848105824	34.631500927950	599.036472865641	872.896937381004	40.140261413249	383.983612121894	950.798301632431	36.621859674633	307.695076389112	1034.145373310196	95.698786554423	339.387298196726	1162.742244166695	40.134958984347	315.428397347967	1089.143787026578	1072.928950800029	83.881920709748	1219.527518635347	847.636211550235	108.047041423922	1024.660765680658	1053.653280408849	653.231202251461	1115.720799209798	813.495420624391	656.529813938990	
5	53.966857142857	840.818514748335	989.001847992414	380.938431579436	1041.262956247045	1417.707495415164	214.893326532992	1130.096242174378	1342.470431400041	380.986756902923	1038.886746196581	1410.978197091651	552.289790181480	1013.084617713077	1478.034880956721	373.996044216807	1065.624637926213	925.239489685436	509.389754292637	1064.223383372250	942.515251631460	235.004502395376	1136.988570083811	743.445607621048	486.487407702875	1085.003015890767	630.092015729012	564.132029948217	1170.358877044345	578.637473240137	487.249543977727	1176.943121338799	466.533683977495	516.244721854768	1126.425817463390	740.197959410539	286.863470726179	1056.840892918895	608.131919217590	234.436886312571	1141.494768931001	545.320478777333	313.967908208425	1146.692352828287	469.933926017367	327.391817652459	1103.710629010306	395.257635997418	322.278125524997	1000.982640512023	294.230986989595	268.647103377169	1021.572886259495	181.579687152400	348.401907297824	1094.464844246800	399.776212970370	529.110931467373	971.778061195857	376.266933519885	596.438755982176	944.677567210724	266.328569038543	553.943959457710	735.609328985967	223.074744192008	538.359427050520	900.534384303525	151.180859561574	575.978644836516	791.733253205027	158.796761333167	610.130359915156	957.678329948307	36.229619641157	600.007765103110	868.222820541478	40.101459829486	383.892241933818	946.149070838660	36.539614135594	307.568725452328	1029.483430571696	95.625515561474	339.243572939704	1158.122589302808	40.123651897002	315.403380992492	1102.206506952787	1075.981596594443	81.562326123433	1245.631270894449	858.666390556250	106.414586947982	1000.720473176307	1055.344882484137	652.716133947160	1072.065274008143	808.083935625489	656.573821446671	
6	53.988571428571	839.612728636778	989.245025810089	378.104796642170	1043.041984726782	1418.407871267242	214.739680619562	1129.109117561349	1342.905600469827	382.125722195185	1035.160818879481	1411.185641510861	552.120972627823	1012.409469067174	1478.419685855824	373.668690929104	1063.963246978932	926.239977313829	508.326028773553	1064.228129763078	943.050355217962	233.742920714321	1138.876772834553	747.693521215273	484.391526273915	1090.684341316685	633.316724123950	562.881049918004	1176.800055918501	583.736964350750	485.392772028437	1186.612064024934	471.649121442154	514.835022391337	1124.904437987706	739.454178143843	285.069757863923	1053.991242482178	607.963247224718	232.976089049282	1138.041920581333	544.590390794979	312.597856646782	1142.745287681026	469.448748810807	326.310113654090	1099.552046113038	394.944169049956	321.345220039515	996.736532186413	293.937558479584	267.731854136176	1017.031179456247	181.446623281756	347.934354885489	1105.176567928725	403.352636926296	528.260430930752	982.731906005710	377.872365469551	595.185342476893	958.150328581686	267.152110659590	553.340236888214	750.273356735801	218.976745306128	537.292949756909	916.719027013140	151.909526081428	576.088789961622	807.764960851724	157.086292932704	609.968656888682	976.404416317886	37.629908196382	601.494907053697	863.572663334951	40.058704111797	383.808913311726	941.530077188436	36.464266000033	307.448944627023	1024.851046934403	95.570989392949	339.077573086783	1153.531435345166	40.123869891682	315.380830658097	1114.743534414695	1079.943363408058	79.429017178659	1270.851007604374	871.241692958403	104.890820644875	977.240884404624	1058.615878472991	651.778658502995	1029.957019687065	805.705703676740	655.775773970697	
